# xmcd CD database file
#
# Track frame offsets:
#	150
#	17796
#	35246
#	44905
#	57870
#	77257
#	97951
#	112952
#	114090
#	131414
#	146189
#	153204
#	165634
#	176689
#	199423
#
# Disc length: 3697 seconds
#
# Revision: 0
# Processed by: cddbd v1.5.2PL0 Copyright (c) Steve Scherf et al.
# Submitted via: CDex 1.51
#
DISCID=c70e6f0f
DTITLE=The King Khan and BBQ Show - What's For Dinner?
DYEAR=1900
DGENRE=Rhythmic Soul
TTITLE0=Treat Me Like a Dog
TTITLE1=I'll Never Belong
TTITLE2=Zombies
TTITLE3=Dock It #8
TTITLE4=Why Don't You Lie?
TTITLE5=Captain Captain
TTITLE6=Too Much In Love
TTITLE7=Learn my Language
TTITLE8=Blow My Top
TTITLE9=Into the Snow
TTITLE10=Operation
TTITLE11=The Ballad of...
TTITLE12=What's For Dinner?
TTITLE13=Suck it and Smell
TTITLE14=Data Track
EXTD=
EXTT0=
EXTT1=
EXTT2=
EXTT3=
EXTT4=
EXTT5=
EXTT6=
EXTT7=
EXTT8=
EXTT9=
EXTT10=
EXTT11=
EXTT12=
EXTT13=
EXTT14=
PLAYORDER=
